# xmcd
#
# Track frame offsets:
#	150
#	19454
#	39869
#	63687
#	86787
#	109972
#	137430
#	155599
#	187200
#	211714
#	235942
#
# Disc length: 3476 seconds
# Revision: 0
# Processed by: cddbd v1.5.2PL0 Copyright (c) Steve Scherf et al.
# Submitted via: dBpowerAMP V12.0
#
DISCID=9a0d920b
DTITLE=Black Country Communion - Afterglow
DYEAR=2012
DGENRE=Blues Rock
TTITLE0=Big Train
TTITLE1=This Is Your Time
TTITLE2=Midnight Sun
TTITLE3=Confessor
TTITLE4=Cry Freedom
TTITLE5=Afterglow
TTITLE6=Dandelion
TTITLE7=The Circle
TTITLE8=Common Man
TTITLE9=The Giver
TTITLE10=Crawl
EXTD=
EXTT0=
EXTT1=
EXTT2=
EXTT3=
EXTT4=
EXTT5=
EXTT6=
EXTT7=
EXTT8=
EXTT9=
EXTT10=
PLAYORDER=
